<?xml version="1.0" encoding="UTF-8"?>
<svg version="1.0" xmlns="http://www.w3.org/2000/svg" xmlns:xlink="http://www.w3.org/1999/xlink" width="970" height="650" viewBox="-198 -130 388 260">
<defs>
  <marker id="end" markerUnits="strokeWidth" markerWidth="9" markerHeight="6" refX="9" refY="3" orient="auto">
    <path d="M 3,3 l -3,-3 l 9,2.5 v 1 l -9,2.5 z"/>
  </marker>
  <marker id="start" markerUnits="strokeWidth" markerWidth="9" markerHeight="6" refX="0" refY="3" orient="auto">
    <path d="M 6,3 l 3,-3 l -9,2.5 v 1 l 9,2.5 z"/>
  </marker>
</defs>
<g style="fill:#E30A17;opacity:0.5">
  <rect x="-188" y="-120" width="8" height="240" style="fill:#ffffff;"/>
  <rect x="-180" y="-120" width="360" height="240"/>
  <circle cx="-60" r="60" style="fill:#ffffff;"/>
  <circle cx="-45" r="48"/>
	<path transform="translate(17)scale(30)rotate(-90)" d="M0,-1 L0.58779,0.80902 L-0.95106,-0.30902 L0.95106,-0.30902 L-0.58779,0.80902z" style="fill:#ffffff;"/>
</g>
<g style="fill:none;stroke:#000000;stroke-width:0.8;">
  <path d="m -180,-120 h -8 v 240 h 8"/>
  <rect x="-180" y="-120" width="360" height="240"/>
  <path d="M -60,-60 A 60,60 0 0 0 -120,0 60,60 0 0 0 -60,60 60,60 0 0 0 -9.398436,32.114844 48,48 0 0 1 -45,48 48,48 0 0 1 -93,0 48,48 0 0 1 -45,-48 48,48 0 0 1 -9.218752,-31.907812 60,60 0 0 0 -60,-60 Z"/>
  <path style="stroke-linejoin:bevel;" d="M 7.729688,-28.532032 V -6.735156 L -13,0 7.729688,6.735156 V 28.532032 L 20.541408,10.898436 41.270312,17.633592 28.459376,0 41.270312,-17.633592 20.541408,-10.898436 Z"/>
  <g style="stroke-dasharray:1,1;">
    <path d="M -9.218752,-31.907812 A 60,60 0 0 1 0,0 60,60 0 0 1 -9.398436,32.114844 48,48 0 0 0 3,0 48,48 0 0 0 -9.218752,-31.907812 Z"/>
    <circle cx="17" r="30"/>
    <path d="M 17,-30 H 50 M 17,30 H 50"/>
    <path d="M -45,-48 H 80 M -45,48 H 80"/>
    <path d="M -60,-60 H 110 M -60,60 H 110"/>
    <path d="M -60,-70 V 60"/>
    <path d="M -45,48 V -70"/>
    <path d="M -93,0 V 70 M -13,0 V 70"/>
    <path d="M -180,0 H 17"/>
    <path d="M 17,-30 V 30"/>
  </g>
  <g style="marker-start:url(#start);marker-end:url(#end);">
    <path d="M -180,-70 H -60"/>
    <path d="M -60,-70 H -45" style="stroke-width:0.6;"/>
    <path d="M -93,70 H -13"/>
    <path d="M 50,-30 V 30"/>
    <path d="M 80,-48 V 48"/>
    <path d="M 110,-60 V 60"/>
    <path d="M -188,105 h 8" style="stroke-width:0.4;"/>
    <path d="M -180,105 H 180"/>
    <path d="M 170,-120 V 120"/>
  </g>
</g>
<g id="labels">
  <path id="L" d="m -1.8144562,95.666275 h 0.7890625 v 5.167965 H 1.81445 v 0.66407 h -3.6289062 z" />
  <path id="A" d="m -120.00001,-78.556381 -1.07031,2.902344 h 2.14453 z m -0.44531,-0.777344 h 0.89453 l 2.22266,5.832031 h -0.82032 l -0.53125,-1.496093 h -2.6289 l -0.53125,1.496093 h -0.83203 z" />
  <path id="C" d="m -50.148437,-78.884506 v 0.832031 Q -50.546875,-78.423569 -51,-78.607162 q -0.449219,-0.183594 -0.957031,-0.183594 -1,0 -1.53125,0.613281 -0.53125,0.609375 -0.53125,1.765625 0,1.152344 0.53125,1.765625 0.53125,0.609375 1.53125,0.609375 0.507812,0 0.957031,-0.183594 0.453125,-0.183593 0.851563,-0.554687 v 0.824219 q -0.414063,0.28125 -0.878907,0.421875 -0.460937,0.140625 -0.976562,0.140625 -1.324219,0 -2.085938,-0.808594 -0.761718,-0.8125 -0.761718,-2.214844 0,-1.40625 0.761718,-2.214844 0.761719,-0.8125 2.085938,-0.8125 0.523437,0 0.984375,0.140625 0.464844,0.136719 0.871094,0.414063 z" />
  <path id="E" d="m -54.878906,73.501694 h 3.6875 v 0.664062 h -2.898438 v 1.726563 h 2.777344 v 0.664062 h -2.777344 v 2.113281 h 2.96875 v 0.664063 h -3.757812 z" />
  <path id="M" d="m -186.66797,95.666275 h 1.17578 l 1.48828,3.96875 1.4961,-3.96875 h 1.17578 v 5.832035 h -0.76953 v -5.121097 l -1.50391,3.999997 h -0.79297 l -1.5039,-3.999997 v 5.121097 h -0.76563 z" />
  <path id="B" d="M 54.290768,0.13085985 V 2.2675786 h 1.265625 q 0.636718,0 0.941406,-0.2617187 0.308594,-0.265625 0.308594,-0.8085938 0,-0.546875 -0.308594,-0.8046875 -0.304688,-0.26171875 -0.941406,-0.26171875 z m 0,-2.39843745 v 1.75781245 h 1.167968 q 0.578125,0 0.859375,-0.21484375 0.285157,-0.21875 0.285157,-0.6640625 0,-0.4414062 -0.285157,-0.6601562 -0.28125,-0.21875 -0.859375,-0.21875 z m -0.789063,-0.6484375 h 2.015625 q 0.902344,0 1.390625,0.375 0.488281,0.375 0.488281,1.0664062 0,0.53515625 -0.25,0.8515625 -0.25,0.31640625 -0.734375,0.39453125 0.582032,0.125 0.902344,0.5234375 0.324219,0.39453125 0.324219,0.98828125 0,0.78125 -0.53125,1.2070313 -0.53125,0.4257812 -1.511719,0.4257812 h -2.09375 z" />
  <path id="D" d="m 84.290764,-2.2675776 v 4.5351562 h 0.953125 q 1.207031,0 1.765625,-0.546875 0.5625,-0.546875 0.5625,-1.7265625 0,-1.171875 -0.5625,-1.7148437 -0.558594,-0.546875 -1.765625,-0.546875 z m -0.789063,-0.6484375 h 1.621094 q 1.695313,0 2.488281,0.7070312 0.792969,0.703125 0.792969,2.203125 0,1.5078125 -0.796875,2.2148438 -0.796875,0.7070312 -2.484375,0.7070312 h -1.621094 z" />
  <path id="F" d="m 113.50171,-2.9160151 h 3.35156 v 0.6640625 h -2.5625 v 1.71874995 h 2.3125 v 0.6640625 h -2.3125 V 2.9160161 h -0.78906 z" />
  <path id="G" d="M 165.71704,2.0839849 V 0.5175786 h -1.28906 v -0.6484375 h 2.07031 v 2.5039063 q -0.45703,0.3242187 -1.00781,0.4921875 -0.55078,0.1640625 -1.17578,0.1640625 -1.36719,0 -2.14063,-0.796875 -0.76953,-0.8007813 -0.76953,-2.22656255 0,-1.42968745 0.76953,-2.22656245 0.77344,-0.8007813 2.14063,-0.8007813 0.57031,0 1.08203,0.140625 0.51562,0.140625 0.94922,0.4140625 v 0.8398438 q -0.4375,-0.3710938 -0.92969,-0.5585938 -0.49219,-0.1875 -1.03516,-0.1875 -1.07031,0 -1.60937,0.5976563 -0.53516,0.5976562 -0.53516,1.78124995 0,1.17968755 0.53516,1.77734375 0.53906,0.5976563 1.60937,0.5976563 0.41797,0 0.7461,-0.070312 0.32812,-0.074219 0.58984,-0.226563 z" />
</g>
</svg>
